<svg width="58" height="58" viewBox="0 0 58 58" fill="none" xmlns="http://www.w3.org/2000/svg">
<g clip-path="url(#clip0_63_374)">
<circle cx="29" cy="29" r="29" fill="#668E7D"/>
<path d="M14.7042 41.71V37.2699C14.7042 36.3713 14.9299 35.5454 15.3814 34.7922C15.8328 34.0389 16.4326 33.4641 17.1807 33.0677C18.7801 32.2484 20.4053 31.6339 22.0563 31.2242C23.7073 30.8146 25.3841 30.6098 27.0867 30.6098C28.0412 30.6098 28.9828 30.6692 29.9115 30.7882C30.8402 30.9071 31.7689 31.0987 32.6976 31.363L30.105 34.0588C29.589 33.9795 29.086 33.9134 28.5958 33.8605C28.1057 33.8077 27.6027 33.7813 27.0867 33.7813C25.6421 33.7813 24.2104 33.9597 22.7915 34.3165C21.3727 34.6732 19.9668 35.2084 18.5738 35.922C18.3416 36.0542 18.1546 36.2392 18.0127 36.477C17.8708 36.7149 17.7999 36.9792 17.7999 37.2699V38.5385H27.0867V41.71H14.7042ZM30.1824 43.2958V38.4196L38.734 29.698C38.9662 29.4601 39.2242 29.2883 39.5079 29.1826C39.7917 29.0769 40.0755 29.024 40.3592 29.024C40.6688 29.024 40.9655 29.0835 41.2492 29.2024C41.533 29.3213 41.791 29.4997 42.0231 29.7376L43.4549 31.2044C43.6612 31.4423 43.8225 31.7066 43.9385 31.9973C44.0546 32.288 44.1127 32.5787 44.1127 32.8695C44.1127 33.1602 44.0611 33.4575 43.9579 33.7614C43.8547 34.0654 43.687 34.3363 43.4549 34.5741L34.9419 43.2958H30.1824ZM32.5041 40.9171H33.9745L38.6566 36.0806L37.9601 35.3274L37.2249 34.6138L32.5041 39.4107V40.9171ZM37.9601 35.3274L37.2249 34.6138L38.6566 36.0806L37.9601 35.3274ZM22.7142 27.1608C21.5017 25.9186 20.8955 24.4253 20.8955 22.681C20.8955 20.9367 21.5017 19.4434 22.7142 18.2013C23.9266 16.9591 25.3841 16.338 27.0867 16.338C28.7893 16.338 30.2468 16.9591 31.4593 18.2013C32.6718 19.4434 33.278 20.9367 33.278 22.681C33.278 24.4253 32.6718 25.9186 31.4593 27.1608C30.2468 28.4029 28.7893 29.024 27.0867 29.024C25.3841 29.024 23.9266 28.4029 22.7142 27.1608ZM29.273 24.9209C29.8792 24.2998 30.1824 23.5532 30.1824 22.681C30.1824 21.8088 29.8792 21.0622 29.273 20.4411C28.6668 19.8201 27.938 19.5095 27.0867 19.5095C26.2354 19.5095 25.5067 19.8201 24.9004 20.4411C24.2942 21.0622 23.9911 21.8088 23.9911 22.681C23.9911 23.5532 24.2942 24.2998 24.9004 24.9209C25.5067 25.542 26.2354 25.8525 27.0867 25.8525C27.938 25.8525 28.6668 25.542 29.273 24.9209Z" fill="white"/>
</g>
<defs>
<clipPath id="clip0_63_374">
<rect width="58" height="58" fill="white"/>
</clipPath>
</defs>
</svg>
