<?xml version="1.0" encoding="UTF-8"?>
<svg id="Camada_1" xmlns="http://www.w3.org/2000/svg" version="1.1" viewBox="0 0 653.58 173.17">
  <!-- Generator: Adobe Illustrator 30.0.0, SVG Export Plug-In . SVG Version: 2.1.1 Build 123)  -->
  <defs>
    <style>
      .st0 {
        fill: #668e7d;
      }

      .st1 {
        fill: #171714;
      }

      .st2 {
        fill: #7e3b79;
      }
    </style>
  </defs>
  <g>
    <g>
      <g>
        <path class="st2" d="M141.37,63.75v19.35l-1,.19c-.68.13-1.35.33-1.97.58-1.33.55-2.63.98-3.88,1.3-2.93.74-5.53,1.12-7.72,1.12-4.44,0-8.32-.88-11.53-2.62-3.24-1.76-5.72-4.16-7.38-7.16-1.65-2.97-2.48-6.3-2.48-9.9s.83-6.97,2.48-9.95c1.66-2.99,4.14-5.41,7.38-7.18,3.21-1.76,7.09-2.65,11.54-2.65,2.36,0,4.98.37,7.79,1.09,2.84.74,4.84,1.46,6.11,2.22l.61.36v6.04s-2.36,0-2.36,0l-.36-.57c-.11-.18-.52-.7-1.96-1.8-1.08-.83-2.56-1.61-4.41-2.32-1.82-.7-3.94-1.05-6.28-1.05-3.09,0-5.76.71-7.94,2.1-2.19,1.4-3.85,3.3-4.96,5.66-1.13,2.41-1.71,5.12-1.71,8.05s.57,5.62,1.7,7.99c1.1,2.33,2.77,4.22,4.96,5.62,2.18,1.4,4.85,2.1,7.94,2.1,2.28,0,4.36-.3,6.17-.88,1.2-.39,2.26-.83,3.16-1.33.45-.46.71-1.11.71-1.8v-14.57h5.4Z"/>
        <path class="st2" d="M151.12,85.45v-37.75h5.4v37.75h-5.4Z"/>
        <path class="st2" d="M205.1,66.62c0,3.55-.8,6.86-2.36,9.82-1.58,2.99-3.93,5.41-6.99,7.19-3.05,1.77-6.69,2.66-10.84,2.66s-7.89-.89-10.94-2.63c-3.07-1.76-5.4-4.18-6.95-7.18-1.53-2.96-2.3-6.28-2.3-9.86s.77-6.95,2.3-9.92c1.55-3,3.88-5.42,6.95-7.2,3.05-1.77,6.73-2.66,10.95-2.66s7.89.9,10.94,2.66c3.06,1.77,5.4,4.2,6.95,7.2,1.53,2.96,2.3,6.3,2.3,9.92ZM197.7,74.83c1.13-2.45,1.7-5.21,1.7-8.22,0-3.03-.57-5.81-1.7-8.26-1.11-2.4-2.76-4.34-4.92-5.77-2.14-1.42-4.79-2.14-7.86-2.14s-5.72.72-7.87,2.14c-2.16,1.43-3.81,3.37-4.91,5.77-1.13,2.45-1.71,5.23-1.71,8.27s.57,5.76,1.7,8.22c1.1,2.4,2.75,4.33,4.91,5.74,2.15,1.4,4.8,2.12,7.87,2.12s5.72-.71,7.87-2.12c2.16-1.41,3.81-3.34,4.92-5.74Z"/>
        <path class="st2" d="M247.07,47.7l-18.88,37.75h-1.95l-17.84-37.75h6.03l13.45,29.18,14.68-29.18h4.5Z"/>
        <path class="st2" d="M285.06,85.44h-5.94l-4.46-9.63h-17.57c-.89,0-1.7.52-2.11,1.35l-3.95,8.28h-4.57l18.84-39.04h1.97l17.8,39.04ZM257.62,72.11h15.25l-7.18-16.13-8.06,16.13Z"/>
        <path class="st2" d="M330.38,47.7v37.75h-3.44l-.22-.96c-.02-.09-2.32-9.23-15.48-16.54-6.29-3.39-11.13-6.9-14.42-10.46v27.95h-4.04v-37.75h3.67l.31.78c1.1,2.79,4.68,8.45,16.31,14.95,6.74,3.77,10.81,7.37,13.27,10.31v-26.05h4.04Z"/>
        <path class="st2" d="M376.78,85.44h-5.94l-4.46-9.63h-17.57c-.89,0-1.7.52-2.11,1.35l-3.95,8.28h-4.57l18.84-39.04h1.97l17.8,39.04ZM349.33,72.11h15.25l-7.18-16.13-8.06,16.13Z"/>
      </g>
      <g>
        <path class="st2" d="M403.67,47.63v24.09c0,2.98-.11,5.22-.33,7.05-.27,2.2-.86,4.12-1.74,5.71-.16.28-.33.55-.51.82-.88,1.28-2.02,2.33-3.42,3.12-1.53.86-3.49,1.33-5.83,1.41l-1.27.04v-3.1l1.65-.36c.48-.13.91-.28,1.28-.45,1.3-.6,2.26-1.38,2.95-2.39.7-1.03,1.17-2.3,1.4-3.77l.09-.59c.08-.63.15-1.28.2-1.98.03-.36.05-.73.07-1.14.03-.61.05-1.28.06-2.06v-26.39h5.4Z"/>
        <path class="st2" d="M448.18,85.44h-5.94l-4.46-9.63h-17.57c-.89,0-1.7.52-2.11,1.35l-3.95,8.28h-4.57l18.84-39.04h1.97l17.8,39.04ZM420.73,72.11h15.25l-7.18-16.13-8.06,16.13Z"/>
        <path class="st2" d="M460.44,61.03h14.07v4.04h-14.07v20.38h-5.4v-37.75h29.14l1.01,4.04h-24.74v9.29Z"/>
        <path class="st2" d="M497.51,81.41h24.74l-1,4.04h-29.14v-37.75h29.14l1,4.04h-24.74v9.29h14.07v4.04h-14.07v16.34Z"/>
        <path class="st2" d="M559.32,81.41l-1,4.04h-29.14v-37.75h5.4v33.71h24.74Z"/>
        <path class="st2" d="M566.77,85.45v-37.75h5.4v37.75h-5.4Z"/>
        <path class="st2" d="M615.39,76.58v6.03l-.58.36c-1.17.73-3.16,1.45-6.08,2.21-2.86.74-5.39,1.12-7.52,1.12-4.33,0-8.11-.88-11.24-2.63-3.15-1.76-5.57-4.17-7.18-7.16-1.6-2.97-2.4-6.29-2.4-9.88s.81-6.97,2.4-9.93c1.61-2.99,4.03-5.41,7.18-7.18,3.12-1.76,6.91-2.66,11.24-2.66,2.3,0,4.86.37,7.59,1.1,2.77.74,4.71,1.47,5.95,2.23l.59.36v6.03s-2.36,0-2.36,0l-.36-.58c-.11-.17-.51-.7-1.9-1.8-1.04-.83-2.48-1.61-4.28-2.31-1.76-.7-3.81-1.05-6.08-1.05-2.99,0-5.58.7-7.68,2.09-2.12,1.4-3.74,3.3-4.81,5.66-1.1,2.42-1.66,5.13-1.66,8.06s.56,5.62,1.66,8c1.07,2.33,2.69,4.22,4.81,5.61,2.11,1.39,4.69,2.09,7.69,2.09,2.21,0,4.23-.29,5.98-.87,1.73-.57,3.15-1.27,4.2-2.06,1.02-.76,1.72-1.5,2.1-2.18l.35-.64h2.4Z"/>
        <path class="st2" d="M628.84,81.41h24.74l-1,4.04h-29.14v-37.75h29.14l1,4.04h-24.74v9.29h14.07v4.04h-14.07v16.34Z"/>
      </g>
    </g>
    <g>
      <path class="st1" d="M124.05,116.26h0c0,.89-.24,1.73-.71,2.48-.47.76-1.12,1.37-1.93,1.8-.81.44-1.71.66-2.66.66h-5.3v4.96h-1.88v-14.85h7.17c.96,0,1.85.22,2.66.66.81.44,1.46,1.05,1.93,1.8.47.76.71,1.59.71,2.48ZM113.44,112.58v7.35h4.05c.36,0,.72-.02,1.04-.07.54-.08,1.04-.22,1.46-.43.68-.33,1.19-.77,1.53-1.31.32-.51.49-1.1.51-1.74v-.13s0-.09,0-.09c-.02-.64-.19-1.23-.51-1.74-.34-.54-.86-.99-1.53-1.31-.43-.21-.92-.35-1.46-.43-.12-.02-.23-.04-.35-.05h0s-.09,0-.13-.01h-.13c-.07-.02-.14-.02-.21-.03h-4.26Z"/>
      <path class="st1" d="M147.87,122.44h0c0,.79-.28,1.52-.83,2.18-.54.65-1.31,1.18-2.28,1.57-.96.39-2.06.58-3.27.58-1.53,0-2.77-.15-3.66-.44-.89-.29-1.73-.68-2.5-1.17l-.14-.09v-2.1h.67l.09.12c.37.47.74.88,1.08,1.2.22.21.56.43.99.65l.09.04c.66.3,1.37.48,2.11.52.55.03,1.19.05,1.8.02h.25c.07-.02.14-.03.2-.03.16-.01.31-.03.46-.05.45-.07.89-.2,1.31-.41.57-.26,1.01-.58,1.33-.96.35-.42.52-.87.52-1.36,0-.04,0-.07,0-.11,0-.07,0-.13-.02-.19-.04-.34-.17-.64-.37-.91-.12-.18-.26-.33-.43-.47-.52-.43-1.15-.77-1.9-1.03-.28-.1-.86-.27-1.73-.52l-.86-.24c-1.05-.29-2.06-.67-2.99-1.12-.21-.1-.34-.17-.42-.22-.43-.27-.81-.59-1.15-.94-.48-.5-.76-1.09-.85-1.78-.01-.08-.02-.17-.02-.26,0-.06,0-.13,0-.19,0-.78.26-1.48.76-2.09.5-.59,1.19-1.06,2.07-1.39.86-.32,1.87-.49,2.98-.49.72,0,1.52.09,2.39.27.38.08.76.17,1.15.29.45.13.88.28,1.26.44l.19.08v2.12h-.68l-.09-.13c-.34-.47-.85-.91-1.51-1.3,0,0-.03-.01-.06-.02-.84-.34-1.72-.52-2.64-.52-.28,0-.53,0-.77.03-.91.06-1.76.38-2.47.91-.06.05-.11.09-.14.12-.07.07-.13.14-.19.21l-.03.03c-.29.35-.44.75-.44,1.2,0,.04,0,.07,0,.11,0,.05,0,.11.01.16.02.15.05.29.1.42.1.32.3.58.61.82l.09.06c.14.12.28.21.42.3.03.02.08.05.15.08.29.18.6.32.92.45.54.21,1.29.45,2.29.76.98.29,1.82.57,2.52.82.21.08.4.16.57.23.82.35,1.52.83,2.1,1.43.49.51.79,1.12.87,1.81.01.09.02.18.03.28,0,.06,0,.12,0,.18Z"/>
      <path class="st1" d="M159.47,126.17v-14.85h1.88v14.85h-1.88Z"/>
      <path class="st1" d="M186.17,122.98v2.12l-.15.09c-.48.28-1.31.57-2.53.87-1.2.3-2.26.45-3.14.45-1.8,0-3.38-.35-4.67-1.04-1.31-.69-2.3-1.64-2.97-2.81-.66-1.17-1-2.48-1-3.9s.33-2.75,1-3.92c.67-1.18,1.66-2.13,2.97-2.82,1.3-.7,2.87-1.05,4.68-1.05.96,0,2.03.15,3.17.44,1.16.29,1.97.58,2.48.88l.15.09v2.13h-.68l-.09-.14c-.08-.12-.29-.35-.85-.78-.46-.35-1.09-.67-1.87-.96-.77-.29-1.67-.44-2.66-.44-1.31,0-2.45.3-3.38.88-.93.58-1.65,1.38-2.12,2.37-.48,1-.73,2.13-.73,3.34s.24,2.33.73,3.32c.47.98,1.19,1.77,2.12,2.35.93.58,2.07.88,3.38.88.96,0,1.84-.12,2.6-.36.76-.24,1.38-.53,1.85-.86.46-.33.78-.64.95-.94l.09-.16h.69Z"/>
      <path class="st1" d="M213.63,118.76c0,1.4-.33,2.71-.98,3.87-.65,1.18-1.63,2.13-2.89,2.82-1.26.7-2.78,1.05-4.5,1.05s-3.28-.35-4.55-1.04c-1.27-.69-2.23-1.64-2.87-2.82-.63-1.17-.96-2.48-.96-3.89s.32-2.75.96-3.91c.64-1.18,1.6-2.13,2.87-2.83,1.26-.7,2.79-1.05,4.55-1.05s3.28.35,4.54,1.05c1.27.7,2.23,1.65,2.87,2.83.63,1.17.95,2.49.95,3.92ZM201.8,124.57c.95.59,2.11.89,3.46.89s2.51-.3,3.46-.89c.95-.59,1.68-1.4,2.16-2.4.49-1.02.74-2.16.74-3.4s-.25-2.41-.74-3.42c-.49-1-1.22-1.82-2.17-2.42-.95-.59-2.11-.9-3.46-.9s-2.51.3-3.46.9c-.95.6-1.68,1.41-2.16,2.41-.49,1.02-.74,2.17-.74,3.42s.25,2.39.74,3.4c.49,1,1.21,1.81,2.16,2.4Z"/>
      <path class="st1" d="M237.09,124.93l-.32,1.23h-12.01v-14.85h1.87v13.62h10.45Z"/>
      <path class="st1" d="M263.44,118.76c0,1.4-.33,2.71-.98,3.87-.65,1.18-1.63,2.13-2.89,2.82-1.26.7-2.78,1.05-4.5,1.05s-3.28-.35-4.55-1.04c-1.27-.69-2.23-1.64-2.87-2.82-.63-1.17-.96-2.48-.96-3.89s.32-2.75.96-3.91c.64-1.18,1.6-2.13,2.87-2.83,1.26-.7,2.79-1.05,4.55-1.05s3.28.35,4.55,1.05c1.26.7,2.23,1.65,2.87,2.83.63,1.17.96,2.49.96,3.92ZM251.61,124.57c.95.59,2.11.89,3.46.89s2.51-.3,3.46-.89c.95-.59,1.68-1.4,2.17-2.4.49-1.02.74-2.16.74-3.4s-.25-2.41-.74-3.42c-.49-1-1.22-1.82-2.17-2.42-.95-.59-2.11-.9-3.46-.9s-2.51.3-3.46.9c-.95.6-1.68,1.41-2.16,2.41-.49,1.02-.74,2.17-.74,3.42s.25,2.39.74,3.4c.48,1,1.21,1.81,2.16,2.4Z"/>
      <path class="st1" d="M289.46,117.8v7.45l-.26.05c-.3.06-.6.14-.88.25-.56.22-1.1.39-1.62.52-1.23.3-2.32.45-3.23.45-1.85,0-3.47-.35-4.8-1.04-1.34-.69-2.37-1.64-3.05-2.81-.68-1.17-1.03-2.48-1.03-3.9s.34-2.75,1.03-3.92c.69-1.18,1.71-2.13,3.05-2.82,1.33-.69,2.95-1.05,4.8-1.05.99,0,2.08.15,3.26.44,1.19.29,2.02.58,2.54.88l.15.09v2.13s-.68,0-.68,0l-.09-.14c-.08-.12-.3-.35-.88-.78-.47-.35-1.12-.67-1.93-.97-.8-.29-1.72-.44-2.74-.44-1.35,0-2.53.3-3.49.88-.96.58-1.7,1.38-2.18,2.37-.49,1-.74,2.12-.74,3.34s.25,2.33.74,3.31c.49.98,1.22,1.77,2.18,2.35.96.58,2.13.88,3.49.88.99,0,1.9-.12,2.69-.36.53-.16,1.01-.35,1.41-.56.24-.22.38-.55.38-.89v-5.69h1.88Z"/>
      <path class="st1" d="M301.49,126.17v-14.85h1.87v14.85h-1.87Z"/>
      <path class="st1" d="M329.59,126.17h-2.07l-1.9-3.89h-7.6c-.46,0-.87.25-1.08.66l-1.62,3.23h-1.48l7.8-15.38h.57l6.53,13.63-.28.13.29-.12.83,1.74ZM317.92,121.18h7.14l-3.36-7.18-3.78,7.18Z"/>
      <path class="st1" d="M363.05,124.93h10.45l-.32,1.23h-12.01v-14.85h12.01l.32,1.23h-10.45v4.15h5.98v1.23h-5.98v7Z"/>
      <path class="st1" d="M417.62,116.26h0c0,.89-.24,1.73-.71,2.48-.47.76-1.12,1.37-1.93,1.8-.81.44-1.71.66-2.66.66h-5.3v4.96h-1.87v-14.85h7.17c.96,0,1.85.22,2.66.66.81.44,1.46,1.05,1.93,1.8.47.76.71,1.59.71,2.48ZM407.02,112.58v7.35h4.05c.36,0,.71-.02,1.04-.07.54-.08,1.04-.22,1.46-.43.68-.33,1.19-.77,1.53-1.31.32-.51.49-1.1.51-1.74v-.13s0-.09,0-.09c-.02-.64-.19-1.23-.51-1.74-.34-.54-.86-.99-1.53-1.31-.43-.21-.92-.35-1.46-.43-.12-.02-.23-.04-.35-.05h0s-.09,0-.13-.01h-.13c-.07-.02-.14-.02-.21-.03h-4.26Z"/>
      <path class="st1" d="M441.45,122.44h0c0,.79-.28,1.52-.83,2.18-.54.65-1.31,1.18-2.28,1.57-.96.39-2.06.58-3.28.58-1.53,0-2.76-.15-3.66-.44-.89-.29-1.73-.68-2.5-1.17l-.14-.09v-2.1h.67l.1.12c.37.47.74.88,1.08,1.2.22.21.56.43.99.65l.09.04c.66.3,1.37.48,2.11.52.55.03,1.19.05,1.8.02h.25c.07-.02.14-.03.2-.03.16-.01.31-.03.46-.05.45-.07.89-.2,1.31-.41.57-.26,1.01-.58,1.33-.96.35-.42.52-.87.52-1.36,0-.04,0-.07,0-.11,0-.07,0-.13-.02-.19-.04-.34-.17-.64-.37-.91-.12-.18-.26-.33-.43-.47-.52-.43-1.15-.77-1.9-1.03-.28-.1-.86-.27-1.73-.52l-.86-.24c-1.05-.29-2.06-.67-2.99-1.12-.21-.1-.34-.17-.42-.22-.43-.27-.81-.59-1.15-.94-.48-.5-.76-1.09-.85-1.78,0-.08-.02-.17-.02-.26,0-.06,0-.13,0-.19,0-.78.26-1.48.76-2.09.5-.59,1.19-1.06,2.07-1.39.86-.32,1.87-.49,2.98-.49.72,0,1.52.09,2.39.27.38.08.76.17,1.16.29.45.13.88.28,1.26.44l.19.08v2.12h-.68l-.09-.13c-.34-.47-.85-.91-1.51-1.3,0,0-.03-.01-.06-.02-.84-.34-1.72-.52-2.64-.52-.28,0-.53,0-.77.03-.91.06-1.76.38-2.47.91-.06.05-.11.09-.15.12-.07.07-.13.14-.19.21l-.03.03c-.29.35-.44.75-.44,1.2,0,.04,0,.07,0,.11,0,.05,0,.11.01.16.02.15.05.29.11.42.1.32.3.58.61.82l.09.06c.14.12.28.21.42.3.03.02.08.05.15.08.29.18.6.32.92.45.54.21,1.29.45,2.29.76.97.29,1.82.57,2.52.82.21.08.39.16.57.23.82.35,1.52.83,2.1,1.43.49.51.79,1.12.87,1.81.01.09.02.18.02.28,0,.06,0,.12,0,.18Z"/>
      <path class="st1" d="M453.05,126.17v-14.85h1.88v14.85h-1.88Z"/>
      <path class="st1" d="M479.75,122.98v2.12l-.15.09c-.48.28-1.31.57-2.53.87-1.2.3-2.26.45-3.14.45-1.8,0-3.38-.35-4.67-1.04-1.3-.69-2.3-1.64-2.97-2.81-.66-1.17-1-2.48-1-3.9s.33-2.75,1-3.92c.67-1.18,1.66-2.13,2.97-2.82,1.3-.7,2.87-1.05,4.67-1.05.96,0,2.03.15,3.17.44,1.16.29,1.97.58,2.48.88l.15.09v2.13s-.68,0-.68,0l-.09-.14c-.08-.12-.29-.35-.85-.78-.46-.35-1.09-.67-1.87-.96-.77-.29-1.67-.44-2.66-.44-1.31,0-2.45.3-3.38.88-.93.58-1.65,1.38-2.12,2.37-.48,1-.73,2.13-.73,3.34s.24,2.33.72,3.32c.47.98,1.19,1.77,2.12,2.35.93.58,2.07.88,3.38.88.96,0,1.84-.12,2.6-.36.76-.24,1.38-.53,1.85-.86.46-.33.78-.64.95-.94l.09-.16h.69Z"/>
      <path class="st1" d="M506.03,126.17h-2.07l-1.9-3.89h-7.6c-.46,0-.87.25-1.08.66l-1.62,3.23h-1.48l7.8-15.38h.57l6.53,13.63-.28.13.29-.12.83,1.74ZM494.35,121.18h7.14l-3.36-7.18-3.78,7.18Z"/>
      <path class="st1" d="M533.86,111.31v14.85h-1.08l-.06-.23s-.99-3.81-6.68-6.81c-2.9-1.49-5.06-3.02-6.44-4.58v11.62h-1.3v-14.85h1.21l.08.19c.48,1.15,2.02,3.49,7.02,6.14,3.21,1.71,4.98,3.32,5.95,4.56v-10.9h1.3Z"/>
      <path class="st1" d="M561.92,126.17h-2.07l-1.9-3.89h-7.6c-.46,0-.87.25-1.08.66l-1.65,3.23h-1.45l7.8-15.38h.57l6.53,13.63-.28.13.29-.12.84,1.74ZM550.25,121.18h7.14l-3.36-7.18-3.78,7.18ZM553.33,110.74l-.54-.4.84-1.61c.1-.18.2-.35.3-.5.13-.18.24-.32.43-.32.16,0,.33.07.53.21.17.12.35.27.35.48,0,.17-.1.37-.61.85l-1.3,1.28Z"/>
      <path class="st1" d="M585.77,124.93l-.32,1.23h-12.01v-14.85h1.87v13.62h10.45Z"/>
      <path class="st1" d="M597.79,126.17v-14.85h1.87v14.85h-1.87Z"/>
      <path class="st1" d="M623.94,122.44h0c0,.79-.28,1.52-.83,2.18-.54.65-1.31,1.18-2.28,1.57-.96.39-2.06.58-3.27.58-1.53,0-2.77-.15-3.66-.44-.89-.29-1.73-.68-2.5-1.17l-.14-.09v-2.1h.67l.09.12c.37.47.74.88,1.08,1.2.22.21.56.43.99.65l.09.04c.66.3,1.37.48,2.11.52.55.03,1.19.05,1.8.02h.25c.07-.02.14-.03.2-.03.16-.01.31-.03.46-.05.45-.07.89-.2,1.31-.41.57-.26,1.01-.58,1.33-.96.35-.42.52-.87.52-1.36,0-.04,0-.07,0-.11,0-.07,0-.13-.02-.19-.04-.34-.17-.64-.37-.91-.12-.18-.26-.33-.43-.47-.52-.43-1.15-.77-1.9-1.03-.28-.1-.86-.27-1.73-.52l-.86-.24c-1.05-.29-2.06-.67-2.99-1.12-.21-.1-.34-.17-.42-.22-.43-.27-.81-.59-1.15-.94-.47-.5-.76-1.09-.84-1.78-.01-.08-.02-.17-.02-.26,0-.06,0-.13,0-.19,0-.78.26-1.48.76-2.09.5-.59,1.19-1.06,2.07-1.39.86-.32,1.87-.49,2.98-.49.72,0,1.52.09,2.39.27.38.08.76.17,1.15.29.45.13.88.28,1.26.44l.19.08v2.12h-.68l-.09-.13c-.34-.47-.84-.91-1.51-1.3,0,0-.03-.01-.06-.02-.83-.34-1.72-.52-2.64-.52-.28,0-.53,0-.77.03-.91.06-1.76.38-2.47.91-.06.05-.11.09-.14.12-.07.07-.13.14-.19.21l-.03.03c-.29.35-.44.75-.44,1.2,0,.04,0,.07,0,.11,0,.05,0,.11.01.16.02.15.06.29.1.42.1.32.3.58.61.82l.09.06c.14.12.28.21.42.3.03.02.08.05.15.08.29.18.6.32.92.45.54.21,1.29.45,2.29.76.98.29,1.82.57,2.52.82.21.08.39.16.57.23.82.35,1.52.83,2.1,1.43.49.51.79,1.12.87,1.81.01.09.02.18.03.28,0,.06,0,.12,0,.18Z"/>
      <path class="st1" d="M636.93,124.93h10.45l-.32,1.23h-12.01v-14.85h12.01l.32,1.23h-10.45v4.15h5.98v1.23h-5.98v7Z"/>
    </g>
  </g>
  <g>
    <path class="st0" d="M44.69,173.17c-1.05,0-1.9-.85-1.9-1.9V45.82c0-1.05.85-1.9,1.9-1.9s1.9.85,1.9,1.9v125.45c0,1.05-.85,1.9-1.9,1.9Z"/>
    <path class="st0" d="M44.69,146.89c-21.14,0-38.34-17.2-38.34-38.34v-36.45c0-1.05.85-1.9,1.9-1.9s1.9.85,1.9,1.9v36.45c0,19.05,15.5,34.55,34.55,34.55s34.55-15.5,34.55-34.55v-36.45c0-1.05.85-1.9,1.9-1.9s1.9.85,1.9,1.9v36.45c0,21.14-17.2,38.34-38.34,38.34Z"/>
    <g>
      <path class="st0" d="M0,0c5.52,22.63,23.05,40.55,45.46,46.63C39.94,23.99,22.41,6.08,0,0Z"/>
      <path class="st0" d="M89.39,0c-5.52,22.63-23.05,40.55-45.46,46.63C49.45,23.99,66.98,6.08,89.39,0Z"/>
    </g>
  </g>
</svg>